<svg width="26" height="16" viewBox="0 0 26 16" fill="none" xmlns="http://www.w3.org/2000/svg">
<path d="M19.9033 9.80592H1.94301C1.48662 9.80592 1.10433 9.67561 0.796127 9.41501C0.48793 9.1544 0.333294 8.83227 0.33222 8.4486C0.331146 8.06493 0.485782 7.74279 0.796127 7.48219C1.10647 7.22158 1.48877 7.09128 1.94301 7.09128H19.9033L15.3126 3.22292C14.9904 2.95145 14.8358 2.63475 14.8487 2.27279C14.8615 1.91084 15.0162 1.59414 15.3126 1.32267C15.6347 1.05121 16.0175 0.910047 16.4611 0.899188C16.9046 0.888329 17.2869 1.01818 17.6079 1.28874L24.9773 7.49847C25.1384 7.63421 25.2527 7.78125 25.3204 7.9396C25.388 8.09796 25.4213 8.26762 25.4203 8.4486C25.4192 8.62957 25.3859 8.79924 25.3204 8.95759C25.2549 9.11595 25.1405 9.26299 24.9773 9.39872L17.6079 15.6085C17.2858 15.8799 16.9035 16.0102 16.4611 15.9994C16.0186 15.9885 15.6358 15.8469 15.3126 15.5745C15.0172 15.3031 14.8626 14.9864 14.8487 14.6244C14.8347 14.2624 14.9893 13.9457 15.3126 13.6743L19.9033 9.80592Z" fill="white"/>
</svg>
